<svg width="32" height="32" viewBox="0 0 32 32" fill="none" xmlns="http://www.w3.org/2000/svg">
<path d="M16.0001 10.6654C16.2638 10.6654 16.5216 10.7436 16.7409 10.8901C16.9601 11.0366 17.131 11.2448 17.2319 11.4885C17.3328 11.7321 17.3593 12.0002 17.3078 12.2588C17.2564 12.5175 17.1294 12.755 16.9429 12.9415C16.7564 13.128 16.5189 13.255 16.2602 13.3064C16.0016 13.3579 15.7335 13.3315 15.4898 13.2305C15.2462 13.1296 15.038 12.9587 14.8915 12.7395C14.745 12.5202 14.6668 12.2624 14.6668 11.9987C14.6668 11.6451 14.8072 11.3059 15.0573 11.0559C15.3073 10.8058 15.6465 10.6654 16.0001 10.6654ZM28.0001 14.6654C28.0121 18.2745 26.847 21.7891 24.6815 24.6764C22.516 27.5637 19.4682 29.6663 16.0001 30.6654C12.532 29.6663 9.48415 27.5637 7.31867 24.6764C5.15318 21.7891 3.98811 18.2745 4.00009 14.6654V6.66536L16.0001 1.33203L28.0001 6.66536V14.6654ZM16.0001 7.9987C15.0555 7.99729 14.1408 8.33025 13.4181 8.93859C12.6955 9.54694 12.2114 10.3914 12.0517 11.3225C11.892 12.2535 12.067 13.211 12.5456 14.0254C13.0242 14.8398 13.7756 15.4586 14.6668 15.772V23.9987H17.3334V21.332H20.0001V18.6654H17.3334V15.772C18.2245 15.4586 18.9759 14.8398 19.4546 14.0254C19.9332 13.211 20.1082 12.2535 19.9485 11.3225C19.7888 10.3914 19.3047 9.54694 18.5821 8.93859C17.8594 8.33025 16.9447 7.99729 16.0001 7.9987Z" fill="#8f9dc9"/>
</svg>
