<svg width="64" height="64" viewBox="0 0 64 64" fill="none" xmlns="http://www.w3.org/2000/svg">
<path d="M4 29H14V33H4V29Z" fill="#D9D9D9"/>
<path d="M4 20H14V24H4V20Z" fill="#D9D9D9"/>
<path d="M23 4H33V8H23V4Z" fill="#D9D9D9"/>
<path d="M42 20H52V24H42V20Z" fill="#D9D9D9"/>
<path d="M42 29H52V33H42V29Z" fill="#D9D9D9"/>
<path d="M23 46H33V50H23V46Z" fill="#D9D9D9"/>
<path d="M25 22H31V32H25V22Z" fill="#D9D9D9"/>
<path fill-rule="evenodd" clip-rule="evenodd" d="M33 45C33.5523 45 34 45.4477 34 46V50C34 50.5523 33.5523 51 33 51H23C22.4477 51 22 50.5523 22 50V46C22 45.4477 22.4477 45 23 45H33ZM24 47C23.4477 47 23 47.4477 23 48C23 48.5523 23.4477 49 24 49H28C28.5523 49 29 48.5523 29 48C29 47.4477 28.5523 47 28 47H24ZM32 47C31.4477 47 31 47.4477 31 48C31 48.5523 31.4477 49 32 49C32.5523 49 33 48.5523 33 48C33 47.4477 32.5523 47 32 47Z" fill="#14A98B"/>
<path d="M28 41C28.5523 41 29 41.4477 29 42C29 42.5523 28.5523 43 28 43C27.4477 43 27 42.5523 27 42C27 41.4477 27.4477 41 28 41Z" fill="#14A98B"/>
<path d="M28 37C28.5523 37 29 37.4477 29 38C29 38.5523 28.5523 39 28 39C27.4477 39 27 38.5523 27 38C27 37.4477 27.4477 37 28 37Z" fill="#14A98B"/>
<path fill-rule="evenodd" clip-rule="evenodd" d="M30 19C31.1046 19 32 19.8954 32 21V33C32 34.1046 31.1046 35 30 35H26C24.8954 35 24 34.1046 24 33V21C24 19.8954 24.8954 19 26 19H30ZM25 26.916L27.0439 27.6543L25.2451 31L31 27.084L28.957 26.3477L30.7578 23L25 26.916Z" fill="#14A98B"/>
<path fill-rule="evenodd" clip-rule="evenodd" d="M14 28C14.5523 28 15 28.4477 15 29V33C15 33.5523 14.5523 34 14 34H4C3.44772 34 3 33.5523 3 33V29C3 28.4477 3.44772 28 4 28H14ZM5 30C4.44772 30 4 30.4477 4 31C4 31.5523 4.44772 32 5 32H9C9.55228 32 10 31.5523 10 31C10 30.4477 9.55228 30 9 30H5ZM13 30C12.4477 30 12 30.4477 12 31C12 31.5523 12.4477 32 13 32C13.5523 32 14 31.5523 14 31C14 30.4477 13.5523 30 13 30Z" fill="#14A98B"/>
<path fill-rule="evenodd" clip-rule="evenodd" d="M52 28C52.5523 28 53 28.4477 53 29V33C53 33.5523 52.5523 34 52 34H42C41.4477 34 41 33.5523 41 33V29C41 28.4477 41.4477 28 42 28H52ZM43 30C42.4477 30 42 30.4477 42 31C42 31.5523 42.4477 32 43 32H47C47.5523 32 48 31.5523 48 31C48 30.4477 47.5523 30 47 30H43ZM51 30C50.4477 30 50 30.4477 50 31C50 31.5523 50.4477 32 51 32C51.5523 32 52 31.5523 52 31C52 30.4477 51.5523 30 51 30Z" fill="#14A98B"/>
<path d="M18 30C18.5523 30 19 30.4477 19 31C19 31.5523 18.5523 32 18 32C17.4477 32 17 31.5523 17 31C17 30.4477 17.4477 30 18 30Z" fill="#14A98B"/>
<path d="M38 30C38.5523 30 39 30.4477 39 31C39 31.5523 38.5523 32 38 32C37.4477 32 37 31.5523 37 31C37 30.4477 37.4477 30 38 30Z" fill="#14A98B"/>
<path d="M21 26C21.5523 26 22 26.4477 22 27C22 27.5523 21.5523 28 21 28C20.4477 28 20 27.5523 20 27C20 26.4477 20.4477 26 21 26Z" fill="#14A98B"/>
<path d="M35 26C35.5523 26 36 26.4477 36 27C36 27.5523 35.5523 28 35 28C34.4477 28 34 27.5523 34 27C34 26.4477 34.4477 26 35 26Z" fill="#14A98B"/>
<path fill-rule="evenodd" clip-rule="evenodd" d="M14 19C14.5523 19 15 19.4477 15 20V24C15 24.5523 14.5523 25 14 25H4C3.44772 25 3 24.5523 3 24V20C3 19.4477 3.44772 19 4 19H14ZM5 21C4.44772 21 4 21.4477 4 22C4 22.5523 4.44772 23 5 23H9C9.55228 23 10 22.5523 10 22C10 21.4477 9.55228 21 9 21H5ZM13 21C12.4477 21 12 21.4477 12 22C12 22.5523 12.4477 23 13 23C13.5523 23 14 22.5523 14 22C14 21.4477 13.5523 21 13 21Z" fill="#14A98B"/>
<path fill-rule="evenodd" clip-rule="evenodd" d="M52 19C52.5523 19 53 19.4477 53 20V24C53 24.5523 52.5523 25 52 25H42C41.4477 25 41 24.5523 41 24V20C41 19.4477 41.4477 19 42 19H52ZM43 21C42.4477 21 42 21.4477 42 22C42 22.5523 42.4477 23 43 23H47C47.5523 23 48 22.5523 48 22C48 21.4477 47.5523 21 47 21H43ZM51 21C50.4477 21 50 21.4477 50 22C50 22.5523 50.4477 23 51 23C51.5523 23 52 22.5523 52 22C52 21.4477 51.5523 21 51 21Z" fill="#14A98B"/>
<path d="M18 22C18.5523 22 19 22.4477 19 23C19 23.5523 18.5523 24 18 24C17.4477 24 17 23.5523 17 23C17 22.4477 17.4477 22 18 22Z" fill="#14A98B"/>
<path d="M38 22C38.5523 22 39 22.4477 39 23C39 23.5523 38.5523 24 38 24C37.4477 24 37 23.5523 37 23C37 22.4477 37.4477 22 38 22Z" fill="#14A98B"/>
<path d="M28 15C28.5523 15 29 15.4477 29 16C29 16.5523 28.5523 17 28 17C27.4477 17 27 16.5523 27 16C27 15.4477 27.4477 15 28 15Z" fill="#14A98B"/>
<path d="M28 11C28.5523 11 29 11.4477 29 12C29 12.5523 28.5523 13 28 13C27.4477 13 27 12.5523 27 12C27 11.4477 27.4477 11 28 11Z" fill="#14A98B"/>
<path fill-rule="evenodd" clip-rule="evenodd" d="M33 3C33.5523 3 34 3.44772 34 4V8C34 8.55228 33.5523 9 33 9H23C22.4477 9 22 8.55228 22 8V4C22 3.44772 22.4477 3 23 3H33ZM24 5C23.4477 5 23 5.44772 23 6C23 6.55228 23.4477 7 24 7H28C28.5523 7 29 6.55228 29 6C29 5.44772 28.5523 5 28 5H24ZM32 5C31.4477 5 31 5.44772 31 6C31 6.55228 31.4477 7 32 7C32.5523 7 33 6.55228 33 6C33 5.44772 32.5523 5 32 5Z" fill="#14A98B"/>
<path d="M48 60C54.6274 60 60 54.6274 60 48C60 41.3726 54.6274 36 48 36C41.3726 36 36 41.3726 36 48C36 54.6274 41.3726 60 48 60Z" fill="#14A98B"/>
<path d="M48 38C42.48 38 38 42.48 38 48C38 53.52 42.48 58 48 58C53.52 58 58 53.52 58 48C58 42.48 53.52 38 48 38Z" fill="#50BEFF"/>
<path d="M48.44 47.7V43.22C48.44 42.55 47.89 42 47.22 42C46.55 42 46 42.55 46 43.22V48.1C46 48.1 46 48.14 46 48.15C46 48.48 46.1 48.81 46.35 49.06L50.66 52.67C50.78 52.76 51 52.92 51.22 52.92C51.65 52.92 51.99 52.57 51.99 52.15C51.99 51.94 51.89 51.76 51.76 51.6L48.43 47.69L48.44 47.7Z" fill="white"/>
</svg>
