<svg width="64" height="64" viewBox="0 0 64 64" fill="none" xmlns="http://www.w3.org/2000/svg">
<path d="M48 59C54.6274 59 60 53.6274 60 47C60 40.3726 54.6274 35 48 35C41.3726 35 36 40.3726 36 47C36 53.6274 41.3726 59 48 59Z" fill="#1F9CF0"/>
<path d="M48 37C42.48 37 38 41.48 38 47C38 52.52 42.48 57 48 57C53.52 57 58 52.52 58 47C58 41.48 53.52 37 48 37Z" fill="#21B553"/>
<path d="M51.42 46.2299L47.36 42.8499C46.71 42.3099 45.72 42.7699 45.72 43.6199V50.3799C45.72 51.2299 46.71 51.6899 47.36 51.1499L51.42 47.7699C51.9 47.3699 51.9 46.6299 51.42 46.2299Z" fill="white"/>
<path d="M21.5054 6.2402C24.4504 3.25327 29.2252 3.25326 32.1701 6.2402C33.9146 8.00944 34.6255 10.4298 34.3034 12.7299C36.5115 12.4118 38.832 13.0871 40.5629 14.7558L40.7024 14.8938L40.7912 14.9839L40.927 15.1251C43.7355 18.1216 43.6903 22.8603 40.7912 25.8006L25.3585 41.4533C25.1623 41.6524 25.1622 41.9753 25.3585 42.1743L28.5274 45.3887C29.1164 45.9861 29.1164 46.9547 28.5274 47.5521C27.9384 48.1494 26.9834 48.1492 26.3944 47.5518L23.2255 44.3377C21.8512 42.9438 21.8511 40.6838 23.2255 39.2899L38.6582 23.6372C40.4252 21.8451 40.4252 18.9395 38.6582 17.1473L38.5694 17.0572L38.4859 16.9745C36.7132 15.2653 33.9097 15.2927 32.1701 17.0569L19.2836 30.1274C18.6945 30.7248 17.7396 30.7248 17.1506 30.1274C16.5617 29.53 16.5616 28.5614 17.1506 27.964L30.0371 14.8935C31.8042 13.1013 31.8042 10.1958 30.0371 8.4036C28.2703 6.61165 25.4054 6.61142 23.6384 8.4036L6.57445 25.7105C5.98546 26.3078 5.03069 26.3078 4.4417 25.7105C3.8528 25.1131 3.85273 24.1445 4.4417 23.5471L21.5054 6.2402Z" fill="#1F9CF0"/>
<path d="M25.7714 10.567C26.3604 9.96966 27.3154 9.96968 27.9044 10.567C28.4934 11.1644 28.4933 12.1327 27.9044 12.7301L15.2844 25.5302C13.5175 27.3223 13.5174 30.2281 15.2844 32.0204C17.0514 33.8125 19.9161 33.8124 21.6831 32.0204L34.3034 19.2203C34.8924 18.623 35.8474 18.623 36.4364 19.2203C37.0254 19.8177 37.0253 20.7863 36.4364 21.3837L23.8161 34.1838C20.9172 37.1239 16.2453 37.1699 13.2908 34.3217L13.1514 34.1838C10.2065 31.1967 10.2064 26.3538 13.1514 23.3668L25.7714 10.567Z" fill="#1F9CF0"/>
</svg>
