<svg width="64" height="64" viewBox="0 0 64 64" fill="none" xmlns="http://www.w3.org/2000/svg">
<circle cx="9.5" cy="35.5" r="5.5" fill="white"/>
<circle cx="27.5" cy="46.5" r="5.5" fill="white"/>
<circle cx="44.5" cy="35.5" r="5.5" fill="white"/>
<path d="M27 5L34.7942 9.5V18.5L27 23L19.2057 18.5V9.5L27 5Z" fill="white"/>
<path d="M30.1087 16.4297C30.2567 16.4591 30.3929 16.5318 30.4996 16.6385C30.6064 16.7452 30.679 16.8814 30.7085 17.0295C30.7379 17.1775 30.7226 17.3311 30.6648 17.4705C30.607 17.6099 30.509 17.7287 30.3835 17.8125C30.258 17.8963 30.1105 17.9414 29.9595 17.9414C29.7572 17.9413 29.5635 17.8607 29.4205 17.7177C29.2774 17.5746 29.1968 17.381 29.1967 17.1786C29.1967 17.0277 29.2418 16.8801 29.3256 16.7546C29.4095 16.6292 29.5282 16.5312 29.6676 16.4734C29.8071 16.4156 29.9606 16.4003 30.1087 16.4297Z" fill="#14A98B"/>
<path d="M25.8079 11.038C26.0753 10.9845 26.3527 11.0117 26.6048 11.1158C26.8569 11.22 27.0731 11.3972 27.2248 11.6239C27.3763 11.8506 27.457 12.1173 27.457 12.3899C27.4574 12.5707 27.4215 12.7502 27.3526 12.9173C27.2838 13.0841 27.1828 13.2358 27.0554 13.3636C26.9278 13.4916 26.7759 13.5936 26.609 13.663C26.4422 13.7323 26.2634 13.7682 26.0827 13.7685C25.8099 13.7693 25.543 13.6892 25.3157 13.5384C25.0884 13.3874 24.9115 13.1722 24.8065 12.9205C24.7015 12.6687 24.6728 12.3912 24.7255 12.1236C24.7782 11.8562 24.9092 11.6104 25.1016 11.4173C25.2942 11.2241 25.5404 11.0915 25.8079 11.038Z" fill="#14A98B"/>
<path fill-rule="evenodd" clip-rule="evenodd" d="M36.0767 8.45455V19.3636L26.6293 24.8182L17.1818 19.3636V8.45455L26.6293 3L36.0767 8.45455ZM29.5217 14.9979C29.4955 14.9975 29.4703 15.0066 29.4503 15.0234C29.4303 15.0402 29.4161 15.0637 29.4119 15.0895L29.332 15.6669C29.2001 15.7212 29.0761 15.7935 28.9634 15.881L28.418 15.6626C28.3937 15.6535 28.3667 15.6528 28.3423 15.6616C28.318 15.6704 28.2977 15.6881 28.2848 15.7106L27.848 16.4648C27.8351 16.4873 27.8306 16.514 27.8352 16.5394C27.84 16.565 27.8544 16.5881 27.8746 16.6044L28.3349 16.9602C28.3255 17.0326 28.3208 17.1057 28.32 17.1786C28.3206 17.2492 28.3254 17.3196 28.3349 17.3896L27.8746 17.7518C27.8543 17.7681 27.84 17.7912 27.8352 17.8168C27.8304 17.8423 27.8351 17.8688 27.848 17.8913L28.2848 18.6456C28.2977 18.6681 28.318 18.6858 28.3423 18.6946C28.3667 18.7034 28.3937 18.7037 28.418 18.6946L28.9634 18.4762C29.0753 18.5659 29.1996 18.6398 29.332 18.6946L29.4119 19.272C29.4161 19.2978 29.4303 19.3213 29.4503 19.3381C29.4703 19.3548 29.4956 19.364 29.5217 19.3636H30.3942C30.4202 19.3639 30.4456 19.3548 30.4656 19.3381C30.4856 19.3213 30.4987 19.2978 30.5028 19.272L30.5859 18.6893C30.718 18.6336 30.8422 18.5609 30.9545 18.4719L31.5 18.6893C31.5243 18.6984 31.5513 18.6991 31.5756 18.6903C31.5999 18.6815 31.6204 18.6637 31.6332 18.6413L32.0689 17.8871C32.0819 17.8645 32.0865 17.8381 32.0817 17.8125C32.0769 17.787 32.0635 17.7638 32.0433 17.7475L31.5831 17.3853C31.5917 17.3168 31.5957 17.2477 31.5959 17.1786C31.5951 17.1057 31.5903 17.0326 31.581 16.9602L32.0412 16.6044C32.0613 16.5881 32.0748 16.5649 32.0795 16.5394C32.0842 16.5139 32.0797 16.4873 32.0668 16.4648L31.631 15.7106C31.6182 15.6882 31.5978 15.6704 31.5735 15.6616C31.5492 15.6528 31.5221 15.6536 31.4979 15.6626L30.9524 15.881C30.8398 15.7935 30.7158 15.7212 30.5838 15.6669L30.5028 15.0895C30.4987 15.0638 30.4854 15.0402 30.4656 15.0234C30.4456 15.0067 30.4202 14.9976 30.3942 14.9979H29.5217ZM25.2987 8.45455C25.2517 8.45396 25.2059 8.47039 25.1697 8.50036C25.1337 8.53031 25.1097 8.57243 25.1016 8.61861L24.9567 9.66371C24.7194 9.76165 24.4965 9.8916 24.294 10.0494L23.3171 9.65412C23.2735 9.63695 23.2248 9.63604 23.1808 9.65199C23.1368 9.66792 23.0999 9.69942 23.0774 9.74041L22.2923 11.1051C22.2685 11.1455 22.2603 11.1933 22.2688 11.2393C22.2774 11.2855 22.3024 11.3274 22.3391 11.3565L23.168 11.9989C23.151 12.1296 23.1418 12.2614 23.1403 12.3931C23.1415 12.5207 23.1507 12.6481 23.168 12.7745L22.3391 13.4286C22.3024 13.4578 22.2774 13.4997 22.2688 13.5458C22.2604 13.5919 22.2685 13.6397 22.2923 13.68L23.0774 15.0437C23.1005 15.0838 23.1373 15.1141 23.1808 15.13C23.2246 15.1458 23.2734 15.1462 23.3171 15.13L24.294 14.7326C24.4956 14.8929 24.7186 15.0243 24.9567 15.1225L25.1016 16.1644C25.1097 16.2104 25.1329 16.2527 25.1687 16.2827C25.2044 16.3125 25.25 16.3286 25.2965 16.3285H26.869C26.9156 16.3286 26.961 16.3125 26.9968 16.2827C27.0327 16.2527 27.0568 16.2104 27.065 16.1644L27.2099 15.1215C27.4473 15.0218 27.67 14.8905 27.8725 14.7315L28.8505 15.1289C28.8942 15.1451 28.942 15.1458 28.9858 15.13C29.0296 15.1141 29.066 15.083 29.0891 15.0426L29.8743 13.68C29.8975 13.6393 29.9052 13.5909 29.8967 13.5447C29.888 13.4988 29.8637 13.4572 29.8274 13.4276L28.9996 12.7745C29.0164 12.6481 29.026 12.5207 29.0273 12.3931C29.0257 12.2614 29.0162 12.1296 28.9996 11.9989L29.8274 11.3565C29.8637 11.3269 29.8881 11.2854 29.8967 11.2393C29.9052 11.1933 29.8974 11.1458 29.8743 11.1051L29.0891 9.74148C29.0666 9.7006 29.0297 9.66895 28.9858 9.65305C28.9419 9.63731 28.8939 9.63818 28.8505 9.65519L27.8725 10.0494C27.6699 9.89156 27.4472 9.76166 27.2099 9.66371L27.0639 8.61861C27.0557 8.5726 27.0317 8.53028 26.9957 8.50036C26.9599 8.47055 26.9145 8.45433 26.8679 8.45455H25.2987Z" fill="#14A98B"/>
<path d="M9.60618 37.158C9.6475 37.1703 9.68412 37.1942 9.71165 37.2273L9.73722 37.2656H9.74148L10.37 38.43C10.2892 38.4589 10.2067 38.4824 10.1229 38.5004C9.65831 38.6103 9.1727 38.5861 8.72088 38.43L9.3505 37.2624H9.35689C9.37303 37.2225 9.40144 37.2056 9.44212 37.1761C9.49247 37.1483 9.5512 37.1418 9.60618 37.158Z" fill="#14A98B"/>
<path d="M10.6726 36.6136H10.6779L11.9638 36.8256C11.7739 37.3743 11.4108 37.8424 10.9315 38.1552L10.435 36.9087C10.414 36.855 10.4127 36.7949 10.4318 36.7404C10.4509 36.686 10.4888 36.6404 10.5384 36.6126L10.6726 36.6136Z" fill="#14A98B"/>
<path d="M8.462 36.6136C8.51165 36.6158 8.56016 36.6336 8.59943 36.6648C8.61884 36.6802 8.63569 36.6986 8.6495 36.7191L8.67933 36.7841C8.68417 36.827 8.67673 36.8706 8.65696 36.9087V36.9258L8.1669 38.1488C7.68951 37.8391 7.32576 37.3763 7.13352 36.832L8.41513 36.6136H8.462Z" fill="#14A98B"/>
<path d="M9.74148 35.5185L9.98864 35.8317L9.90447 36.228L9.54652 36.4016L9.18857 36.228L9.09588 35.8317L9.34411 35.5185H9.74148Z" fill="#14A98B"/>
<path d="M11.7283 34.5693C12.0177 35.0632 12.1479 35.6379 12.1023 36.212L10.8505 35.8466L10.8441 35.8402C10.8035 35.8281 10.7674 35.8035 10.7408 35.7699C10.7217 35.748 10.7073 35.722 10.6982 35.6943C10.689 35.6665 10.6854 35.6372 10.6875 35.608C10.6896 35.5787 10.6978 35.5498 10.7109 35.5238C10.724 35.4979 10.7423 35.4753 10.7642 35.4567L10.7578 35.4386L11.7283 34.5693Z" fill="#14A98B"/>
<path d="M8.32884 35.4482V35.4545C8.34705 35.4671 8.36254 35.4841 8.37358 35.5036C8.38443 35.5228 8.39107 35.5443 8.39276 35.5664C8.40081 35.5942 8.40339 35.6239 8.40021 35.6527C8.39698 35.6817 8.38762 35.7105 8.37358 35.7358C8.35957 35.7609 8.34063 35.7832 8.31818 35.8008C8.29571 35.8183 8.26991 35.8309 8.24254 35.8381V35.8445L6.99609 36.2109C6.93349 35.6297 7.0612 35.0434 7.35938 34.5447L8.32884 35.4482Z" fill="#14A98B"/>
<path d="M9.16513 34.6619H9.15874C9.1558 34.7071 9.13989 34.7507 9.11293 34.7866C9.07938 34.8333 9.0292 34.8651 8.97337 34.875C8.9177 34.8848 8.86037 34.8722 8.81357 34.8398H8.80717L7.74503 34.0653C8.08139 33.723 8.50625 33.4849 8.96911 33.3793C9.06392 33.3619 9.14862 33.3446 9.23331 33.3324L9.16513 34.6619Z" fill="#14A98B"/>
<path d="M9.85973 33.3398C10.419 33.4109 10.9404 33.6686 11.3427 34.0728L10.2859 34.8473H10.2805C10.2429 34.8668 10.2012 34.8772 10.1591 34.8771C10.1306 34.8787 10.1017 34.8743 10.0749 34.8644C10.0482 34.8545 10.0234 34.8393 10.0025 34.8196C9.98164 34.7999 9.96532 34.7757 9.95348 34.7493C9.94757 34.7361 9.94286 34.7219 9.93963 34.7077L9.9343 34.6641L9.85973 33.3398Z" fill="#14A98B"/>
<path fill-rule="evenodd" clip-rule="evenodd" d="M9.54545 29.1818C13.1604 29.1818 16.0909 32.1123 16.0909 35.7273C16.0909 39.3422 13.1604 42.2727 9.54545 42.2727C5.9305 42.2727 3 39.3422 3 35.7273C3 32.1123 5.9305 29.1818 9.54545 29.1818ZM9.52308 31.3647C9.45688 31.3724 9.39578 31.4066 9.35369 31.4595C9.32209 31.4993 9.30222 31.5477 9.29723 31.598V31.7205C9.30124 31.8007 9.31132 31.8805 9.32706 31.9592C9.3512 32.1094 9.36075 32.2619 9.35582 32.4141C9.34195 32.4672 9.31296 32.5153 9.27166 32.5504L9.26527 32.6559C9.11362 32.6674 8.9627 32.6918 8.81463 32.7273C8.19656 32.8702 7.6342 33.199 7.20064 33.6722L7.11541 33.6072C7.06493 33.6194 7.01173 33.6137 6.9652 33.5902C6.84429 33.499 6.73242 33.3954 6.63068 33.2823C6.57986 33.2216 6.52534 33.1637 6.46875 33.1087L6.41761 33.0671C6.36877 33.0274 6.30923 33.0031 6.24716 32.9968C6.20956 32.9955 6.17213 33.0022 6.13743 33.017C6.10252 33.0321 6.07029 33.0545 6.04474 33.0831C6.00623 33.1415 5.99238 33.2139 6.00426 33.2834C6.01624 33.3525 6.05329 33.4145 6.10866 33.456L6.11506 33.4624C6.12619 33.4745 6.14906 33.4918 6.16087 33.5039C6.22735 33.5497 6.2971 33.5915 6.36861 33.6286C6.49961 33.7049 6.62279 33.7944 6.73722 33.8949C6.76667 33.9381 6.78264 33.9892 6.78303 34.0419L6.86825 34.1133C6.42859 34.7846 6.25206 35.6007 6.37287 36.3995L6.26314 36.4293C6.23608 36.4748 6.19865 36.5131 6.15447 36.5412C6.00987 36.5826 5.86026 36.6066 5.71023 36.6126C5.63107 36.609 5.5518 36.6169 5.47479 36.636L5.40767 36.6477H5.40234V36.6509C5.38548 36.6509 5.36841 36.6572 5.35653 36.6573C5.3249 36.6676 5.29554 36.6843 5.27024 36.7063C5.24498 36.7283 5.22346 36.7549 5.20845 36.7852C5.19353 36.8153 5.18532 36.8484 5.18288 36.8821C5.18047 36.9159 5.18409 36.9501 5.1946 36.9822C5.21713 37.0444 5.26241 37.0954 5.32031 37.125C5.37817 37.1545 5.44481 37.161 5.50675 37.1421C5.53205 37.1382 5.55689 37.1317 5.58132 37.1239C5.65486 37.1021 5.72635 37.0736 5.79439 37.0376C5.93891 36.9828 6.08761 36.9391 6.23864 36.9077C6.28854 36.9077 6.33785 36.9252 6.37713 36.9567L6.49219 36.9386C6.7347 37.7046 7.24076 38.355 7.91655 38.7667L7.87607 38.8722C7.89307 38.9194 7.89894 38.9703 7.89311 39.0202C7.83525 39.1654 7.75986 39.3026 7.66832 39.4283C7.62255 39.4995 7.58149 39.5646 7.52983 39.6349C7.53136 39.6469 7.52956 39.6598 7.52557 39.6712C7.52157 39.6824 7.51494 39.6929 7.50639 39.701C7.50042 39.7182 7.48993 39.7306 7.48402 39.7479C7.46152 39.8113 7.46361 39.8817 7.49148 39.9428C7.51935 40.0038 7.5703 40.0508 7.6321 40.0739C7.69407 40.0969 7.76305 40.0939 7.8228 40.0653C7.88237 40.0368 7.92815 39.9849 7.95064 39.9215C7.96253 39.9041 7.9739 39.8629 7.9858 39.8629C8.01323 39.7855 8.03663 39.7056 8.05504 39.6254C8.1019 39.4672 8.16516 39.3143 8.24467 39.1705C8.27474 39.1413 8.31332 39.1225 8.3544 39.1172L8.41193 39.0117C9.14986 39.3012 9.96619 39.3035 10.7056 39.0181L10.7514 39.1129C10.8006 39.1264 10.8447 39.1565 10.8739 39.1992C10.9423 39.3358 10.9986 39.4788 11.0433 39.6254C11.0603 39.7018 11.0837 39.7803 11.1126 39.8672C11.1245 39.868 11.1416 39.9033 11.1467 39.9205C11.1517 39.9377 11.1578 39.9501 11.1637 39.9673C11.1802 39.996 11.2026 40.0209 11.2287 40.0408C11.2548 40.0608 11.2845 40.0754 11.3161 40.0835C11.3477 40.0916 11.3808 40.0928 11.413 40.0877C11.4451 40.0826 11.4758 40.071 11.5036 40.0536C11.5597 40.019 11.6005 39.9632 11.6165 39.8981C11.6324 39.833 11.6223 39.764 11.5888 39.7063C11.5794 39.6835 11.5713 39.659 11.5653 39.6349C11.5196 39.5698 11.4726 39.4997 11.4268 39.4347C11.3448 39.306 11.2724 39.171 11.2085 39.032C11.2011 39.0065 11.1981 38.9795 11.201 38.9531C11.204 38.9268 11.2128 38.9016 11.2255 38.8786C11.2085 38.8468 11.194 38.8132 11.1839 38.7784C11.8601 38.3661 12.3677 37.7158 12.6104 36.9492L12.7191 36.9663C12.7353 36.9475 12.7567 36.934 12.7798 36.9258C12.803 36.9176 12.8281 36.9149 12.8523 36.9194C13.0045 36.9435 13.1535 36.9854 13.2965 37.044C13.3626 37.0801 13.4325 37.1096 13.5043 37.1314C13.5316 37.1395 13.56 37.1432 13.5884 37.1431V37.1495C13.5884 37.1556 13.613 37.1551 13.63 37.1612C13.6944 37.1677 13.7587 37.1494 13.81 37.109C13.8615 37.0684 13.8967 37.0085 13.907 36.9428C13.9117 36.9096 13.9097 36.8752 13.9016 36.8427C13.8935 36.8103 13.8787 36.78 13.859 36.7532C13.8392 36.7262 13.814 36.7031 13.7855 36.6861C13.7571 36.6691 13.7254 36.6575 13.6928 36.6531C13.6681 36.6494 13.6445 36.6398 13.6246 36.6243H13.3881C13.238 36.6073 13.0895 36.5779 12.9439 36.5369C12.8971 36.5146 12.8585 36.477 12.8342 36.4304L12.7244 36.4016C12.8403 35.6029 12.6587 34.7883 12.2152 34.1207L12.3079 34.0334C12.3053 34.0079 12.3075 33.9821 12.3153 33.9577C12.3233 33.9333 12.3366 33.9106 12.3537 33.8917C12.4672 33.7898 12.5913 33.7003 12.7234 33.6254C12.7938 33.5897 12.8609 33.5477 12.9247 33.5007C12.9431 33.4883 12.9608 33.4745 12.9769 33.4592C12.9946 33.4471 13.0118 33.4361 13.0121 33.424C13.0371 33.4022 13.0569 33.3747 13.0707 33.3441C13.0844 33.3137 13.0919 33.2807 13.092 33.2472C13.092 33.2135 13.0845 33.1797 13.0707 33.1492C13.0569 33.1186 13.0371 33.0911 13.0121 33.0693C12.991 33.0444 12.9647 33.0243 12.9354 33.0107C12.9061 32.997 12.8738 32.9904 12.8416 32.9904C12.8097 32.9905 12.778 32.9972 12.7489 33.0107C12.7197 33.0243 12.6933 33.0445 12.6722 33.0693C12.6553 33.0693 12.6317 33.0932 12.6147 33.1055C12.557 33.1611 12.5046 33.22 12.4528 33.2791C12.3525 33.3935 12.2402 33.4964 12.1183 33.5859C12.0717 33.6094 12.0185 33.6162 11.968 33.6041L11.8754 33.6744C11.3348 33.0899 10.6033 32.7283 9.82031 32.658L9.81499 32.5462C9.7931 32.5315 9.77418 32.512 9.75959 32.4897C9.74502 32.4675 9.73476 32.4425 9.72976 32.4162C9.72481 32.264 9.73439 32.1116 9.75852 31.9613C9.77614 31.8818 9.78812 31.8008 9.79368 31.7195V31.5895C9.79029 31.5566 9.78032 31.5248 9.76491 31.4957C9.74946 31.4666 9.72829 31.441 9.70313 31.4201C9.67798 31.3993 9.64891 31.3837 9.6179 31.3743C9.58713 31.365 9.55498 31.3613 9.52308 31.3647Z" fill="#14A98B"/>
<path d="M27.0607 48.0671C27.102 48.0794 27.1387 48.1033 27.1662 48.1364L27.1918 48.1747H27.196L27.8246 49.3391C27.7437 49.368 27.6612 49.3915 27.5774 49.4095C27.1129 49.5194 26.6272 49.4951 26.1754 49.3391L26.805 48.1715H26.8114C26.8276 48.1316 26.856 48.1147 26.8967 48.0852C26.947 48.0574 27.0057 48.0508 27.0607 48.0671Z" fill="#14A98B"/>
<path d="M28.1271 47.5227H28.1325L29.4183 47.7347C29.2284 48.2834 28.8654 48.7515 28.386 49.0643L27.8896 47.8178C27.8685 47.7641 27.8673 47.704 27.8864 47.6495C27.9054 47.5951 27.9434 47.5495 27.9929 47.5217L28.1271 47.5227Z" fill="#14A98B"/>
<path d="M25.9165 47.5227C25.9662 47.5249 26.0147 47.5427 26.054 47.5739C26.0734 47.5893 26.0902 47.6077 26.104 47.6282L26.1339 47.6932C26.1387 47.7361 26.1313 47.7797 26.1115 47.8178V47.8349L25.6214 49.0579C25.1441 48.7482 24.7803 48.2853 24.5881 47.7411L25.8697 47.5227H25.9165Z" fill="#14A98B"/>
<path d="M27.196 46.4276L27.4432 46.7408L27.359 47.1371L27.0011 47.3107L26.6431 47.1371L26.5504 46.7408L26.7987 46.4276H27.196Z" fill="#14A98B"/>
<path d="M29.1829 45.4783C29.4722 45.9723 29.6025 46.547 29.5568 47.1211L28.305 46.7557L28.2987 46.7493C28.2581 46.7372 28.2219 46.7126 28.1953 46.679C28.1763 46.6571 28.1619 46.6311 28.1527 46.6033C28.1435 46.5756 28.1399 46.5463 28.142 46.5171C28.1442 46.4878 28.1524 46.4589 28.1655 46.4329C28.1786 46.407 28.1969 46.3844 28.2188 46.3658L28.2124 46.3477L29.1829 45.4783Z" fill="#14A98B"/>
<path d="M25.7834 46.3573V46.3636C25.8016 46.3762 25.8171 46.3932 25.8281 46.4126C25.839 46.4319 25.8456 46.4534 25.8473 46.4755C25.8554 46.5033 25.8579 46.5329 25.8548 46.5618C25.8515 46.5907 25.8422 46.6195 25.8281 46.6449C25.8141 46.67 25.7952 46.6923 25.7727 46.7099C25.7503 46.7274 25.7245 46.74 25.6971 46.7472V46.7536L24.4506 47.12C24.388 46.5388 24.5157 45.9525 24.8139 45.4538L25.7834 46.3573Z" fill="#14A98B"/>
<path d="M26.6197 45.571H26.6133C26.6103 45.6162 26.5944 45.6598 26.5675 45.6957C26.5339 45.7424 26.4837 45.7742 26.4279 45.7841C26.3722 45.7939 26.3149 45.7813 26.2681 45.7489H26.2617L25.1996 44.9744C25.5359 44.6321 25.9608 44.3939 26.4237 44.2884C26.5185 44.271 26.6032 44.2536 26.6879 44.2415L26.6197 45.571Z" fill="#14A98B"/>
<path d="M27.3143 44.2489C27.8735 44.32 28.3949 44.5777 28.7972 44.9819L27.7404 45.7564H27.7351C27.6975 45.7759 27.6558 45.7863 27.6136 45.7862C27.5852 45.7877 27.5563 45.7833 27.5295 45.7734C27.5027 45.7636 27.4779 45.7484 27.457 45.7287C27.4362 45.709 27.4199 45.6848 27.408 45.6584C27.4021 45.6451 27.3974 45.6309 27.3942 45.6168L27.3889 45.5732L27.3143 44.2489Z" fill="#14A98B"/>
<path fill-rule="evenodd" clip-rule="evenodd" d="M27 40.0909C30.615 40.0909 33.5455 43.0214 33.5455 46.6364C33.5455 50.2513 30.615 53.1818 27 53.1818C23.385 53.1818 20.4545 50.2513 20.4545 46.6364C20.4545 43.0214 23.385 40.0909 27 40.0909ZM26.9776 42.2738C26.9114 42.2815 26.8503 42.3157 26.8082 42.3686C26.7766 42.4084 26.7568 42.4568 26.7518 42.5071V42.6296C26.7558 42.7098 26.7659 42.7896 26.7816 42.8683C26.8057 43.0185 26.8153 43.171 26.8104 43.3232C26.7965 43.3763 26.7675 43.4244 26.7262 43.4595L26.7198 43.565C26.5682 43.5764 26.4172 43.6009 26.2692 43.6364C25.6511 43.7793 25.0887 44.1081 24.6552 44.5813L24.57 44.5163C24.5195 44.5285 24.4663 44.5228 24.4197 44.4993C24.2988 44.4081 24.187 44.3045 24.0852 44.1914C24.0344 44.1307 23.9799 44.0728 23.9233 44.0178L23.8722 43.9762C23.8233 43.9365 23.7638 43.9122 23.7017 43.9059C23.6641 43.9046 23.6267 43.9113 23.592 43.9261C23.5571 43.9412 23.5248 43.9636 23.4993 43.9922C23.4608 44.0506 23.4469 44.123 23.4588 44.1925C23.4708 44.2616 23.5078 44.3236 23.5632 44.3651L23.5696 44.3715C23.5807 44.3836 23.6036 44.4009 23.6154 44.413C23.6819 44.4588 23.7516 44.5006 23.8232 44.5376C23.9542 44.614 24.0773 44.7035 24.1918 44.804C24.2212 44.8472 24.2372 44.8983 24.2376 44.951L24.3228 45.0224C23.8831 45.6937 23.7066 46.5098 23.8274 47.3086L23.7177 47.3384C23.6906 47.3839 23.6532 47.4222 23.609 47.4503C23.4644 47.4917 23.3148 47.5157 23.1648 47.5217C23.0856 47.5181 23.0063 47.526 22.9293 47.5451L22.8622 47.5568H22.8569V47.56C22.84 47.56 22.823 47.5663 22.8111 47.5664C22.7794 47.5767 22.7501 47.5934 22.7248 47.6154C22.6995 47.6374 22.678 47.664 22.663 47.6943C22.6481 47.7244 22.6399 47.7575 22.6374 47.7912C22.635 47.825 22.6386 47.8592 22.6491 47.8913C22.6717 47.9535 22.717 48.0045 22.7749 48.0341C22.8327 48.0636 22.8994 48.0701 22.9613 48.0511C22.9866 48.0473 23.0114 48.0408 23.0359 48.033C23.1094 48.0112 23.1809 47.9827 23.2489 47.9467C23.3935 47.8919 23.5422 47.8482 23.6932 47.8168C23.7431 47.8168 23.7924 47.8342 23.8317 47.8658L23.9467 47.8477C24.1892 48.6137 24.6953 49.2641 25.3711 49.6758L25.3306 49.7813C25.3476 49.8285 25.3535 49.8794 25.3477 49.9293C25.2898 50.0745 25.2144 50.2117 25.1229 50.3374C25.0771 50.4086 25.036 50.4737 24.9844 50.544C24.9859 50.556 24.9841 50.5689 24.9801 50.5803C24.9761 50.5915 24.9695 50.6019 24.9609 50.6101C24.955 50.6273 24.9445 50.6397 24.9386 50.657C24.9161 50.7204 24.9182 50.7908 24.946 50.8519C24.9739 50.9129 25.0248 50.9599 25.0866 50.983C25.1486 51.006 25.2176 51.003 25.2773 50.9744C25.3369 50.9458 25.3827 50.894 25.4052 50.8306C25.4171 50.8132 25.4284 50.772 25.4403 50.772C25.4678 50.6946 25.4912 50.6147 25.5096 50.5345C25.5564 50.3763 25.6197 50.2234 25.6992 50.0796C25.7293 50.0504 25.7679 50.0316 25.8089 50.0263L25.8665 49.9208C26.6044 50.2103 27.4207 50.2126 28.1602 49.9272L28.206 50.022C28.2552 50.0355 28.2992 50.0656 28.3285 50.1083C28.3969 50.2449 28.4532 50.3879 28.4979 50.5345C28.5149 50.6109 28.5383 50.6894 28.5671 50.7763C28.579 50.7771 28.5962 50.8124 28.6012 50.8296C28.6063 50.8467 28.6124 50.8592 28.6183 50.8764C28.6348 50.9051 28.6572 50.93 28.6832 50.9499C28.7093 50.9699 28.739 50.9845 28.7706 50.9925C28.8022 51.0006 28.8353 51.0019 28.8675 50.9968C28.8997 50.9917 28.9304 50.9801 28.9581 50.9627C29.0143 50.9281 29.0551 50.8723 29.071 50.8072C29.0869 50.7421 29.0769 50.6731 29.0433 50.6154C29.034 50.5925 29.0258 50.5681 29.0199 50.544C28.9741 50.4789 28.9271 50.4088 28.8814 50.3438C28.7994 50.2151 28.7269 50.0801 28.663 49.9411C28.6557 49.9156 28.6526 49.8886 28.6555 49.8622C28.6585 49.8359 28.6673 49.8107 28.68 49.7876C28.663 49.7559 28.6486 49.7222 28.6385 49.6875C29.3146 49.2752 29.8222 48.6249 30.065 47.8583L30.1737 47.8754C30.1899 47.8566 30.2112 47.8431 30.2344 47.8349C30.2576 47.8266 30.2826 47.824 30.3068 47.8285C30.459 47.8526 30.6081 47.8945 30.7511 47.9531C30.8172 47.9892 30.887 48.0187 30.9588 48.0405C30.9862 48.0486 31.0145 48.0523 31.043 48.0522V48.0586C31.043 48.0647 31.0675 48.0642 31.0845 48.0703C31.1489 48.0768 31.2132 48.0585 31.2646 48.0181C31.316 47.9775 31.3512 47.9176 31.3615 47.8519C31.3662 47.8187 31.3643 47.7843 31.3562 47.7518C31.348 47.7193 31.3332 47.6891 31.3136 47.6623C31.2937 47.6353 31.2685 47.6122 31.2401 47.5952C31.2117 47.5782 31.1799 47.5666 31.1474 47.5622C31.1226 47.5584 31.0991 47.5489 31.0792 47.5334H30.8427C30.6926 47.5164 30.5441 47.487 30.3984 47.446C30.3517 47.4237 30.3131 47.3861 30.2887 47.3395L30.179 47.3107C30.2948 46.512 30.1133 45.6974 29.6697 45.0298L29.7624 44.9425C29.7598 44.917 29.762 44.8912 29.7699 44.8668C29.7778 44.8424 29.7912 44.8197 29.8082 44.8008C29.9217 44.6989 30.0459 44.6094 30.1779 44.5345C30.2483 44.4988 30.3154 44.4568 30.3793 44.4098C30.3976 44.3973 30.4153 44.3836 30.4315 44.3683C30.4491 44.3562 30.4664 44.3452 30.4666 44.3331C30.4917 44.3113 30.5114 44.2838 30.5252 44.2532C30.539 44.2228 30.5464 44.1898 30.5465 44.1563C30.5465 44.1226 30.539 44.0888 30.5252 44.0582C30.5114 44.0277 30.4917 44.0001 30.4666 43.9783C30.4455 43.9535 30.4192 43.9334 30.3899 43.9198C30.3606 43.9061 30.3284 43.8995 30.2962 43.8995C30.2642 43.8996 30.2326 43.9063 30.2035 43.9198C30.1743 43.9334 30.1479 43.9536 30.1268 43.9783C30.1099 43.9783 30.0862 44.0023 30.0692 44.0146C30.0115 44.0702 29.9591 44.1291 29.9073 44.1882C29.807 44.3026 29.6948 44.4054 29.5728 44.495C29.5263 44.5185 29.4731 44.5253 29.4226 44.5131L29.3299 44.5835C28.7894 43.999 28.0579 43.6374 27.2749 43.5671L27.2695 43.4553C27.2476 43.4405 27.2287 43.4211 27.2141 43.3988C27.1996 43.3766 27.1893 43.3516 27.1843 43.3253C27.1794 43.1731 27.1889 43.0207 27.2131 42.8704C27.2307 42.7909 27.2427 42.7099 27.2482 42.6286V42.4986C27.2448 42.4657 27.2349 42.4339 27.2195 42.4048C27.204 42.3757 27.1828 42.35 27.1577 42.3292C27.1325 42.3084 27.1035 42.2928 27.0724 42.2834C27.0417 42.2741 27.0095 42.2704 26.9776 42.2738Z" fill="#14A98B"/>
<path d="M44.5153 37.158C44.5566 37.1703 44.5932 37.1942 44.6207 37.2273L44.6463 37.2656H44.6506L45.2791 38.43C45.1983 38.4589 45.1158 38.4824 45.032 38.5004C44.5674 38.6103 44.0818 38.5861 43.63 38.43L44.2596 37.2624H44.266C44.2821 37.2225 44.3105 37.2056 44.3512 37.1761C44.4016 37.1483 44.4603 37.1418 44.5153 37.158Z" fill="#14A98B"/>
<path d="M45.5817 36.6136H45.587L46.8729 36.8256C46.683 37.3743 46.3199 37.8424 45.8406 38.1552L45.3441 36.9087C45.323 36.855 45.3218 36.7949 45.3409 36.7404C45.36 36.686 45.3979 36.6404 45.4474 36.6126L45.5817 36.6136Z" fill="#14A98B"/>
<path d="M43.3711 36.6136C43.4207 36.6158 43.4693 36.6336 43.5085 36.6648C43.5279 36.6802 43.5448 36.6986 43.5586 36.7191L43.5884 36.7841C43.5933 36.827 43.5858 36.8706 43.5661 36.9087V36.9258L43.076 38.1488C42.5986 37.8391 42.2349 37.3763 42.0426 36.832L43.3242 36.6136H43.3711Z" fill="#14A98B"/>
<path d="M44.6506 35.5185L44.8977 35.8317L44.8136 36.228L44.4556 36.4016L44.0977 36.228L44.005 35.8317L44.2532 35.5185H44.6506Z" fill="#14A98B"/>
<path d="M46.6374 34.5693C46.9268 35.0632 47.057 35.6379 47.0114 36.212L45.7596 35.8466L45.7532 35.8402C45.7126 35.8281 45.6765 35.8035 45.6499 35.7699C45.6308 35.748 45.6164 35.722 45.6072 35.6943C45.5981 35.6665 45.5945 35.6372 45.5966 35.608C45.5987 35.5787 45.6069 35.5498 45.62 35.5238C45.6331 35.4979 45.6514 35.4753 45.6733 35.4567L45.6669 35.4386L46.6374 34.5693Z" fill="#14A98B"/>
<path d="M43.2379 35.4482V35.4545C43.2561 35.4671 43.2716 35.4841 43.2827 35.5036C43.2935 35.5228 43.3002 35.5443 43.3018 35.5664C43.3099 35.5942 43.3125 35.6239 43.3093 35.6527C43.3061 35.6817 43.2967 35.7105 43.2827 35.7358C43.2687 35.7609 43.2497 35.7832 43.2273 35.8008C43.2048 35.8183 43.179 35.8309 43.1516 35.8381V35.8445L41.9052 36.2109C41.8426 35.6297 41.9703 35.0434 42.2685 34.5447L43.2379 35.4482Z" fill="#14A98B"/>
<path d="M44.0742 34.6619H44.0678C44.0649 34.7071 44.049 34.7507 44.022 34.7866C43.9885 34.8333 43.9383 34.8651 43.8825 34.875C43.8268 34.8848 43.7695 34.8722 43.7227 34.8398H43.7163L42.6541 34.0653C42.9905 33.723 43.4153 33.4849 43.8782 33.3793C43.973 33.3619 44.0577 33.3446 44.1424 33.3324L44.0742 34.6619Z" fill="#14A98B"/>
<path d="M44.7688 33.3398C45.3281 33.4109 45.8495 33.6686 46.2518 34.0728L45.195 34.8473H45.1896C45.152 34.8668 45.1103 34.8772 45.0682 34.8771C45.0397 34.8787 45.0108 34.8743 44.984 34.8644C44.9573 34.8545 44.9325 34.8393 44.9116 34.8196C44.8907 34.7999 44.8744 34.7757 44.8626 34.7493C44.8567 34.7361 44.8519 34.7219 44.8487 34.7077L44.8434 34.6641L44.7688 33.3398Z" fill="#14A98B"/>
<path fill-rule="evenodd" clip-rule="evenodd" d="M44.4545 29.1818C48.0695 29.1818 51 32.1123 51 35.7273C51 39.3422 48.0695 42.2727 44.4545 42.2727C40.8396 42.2727 37.9091 39.3422 37.9091 35.7273C37.9091 32.1123 40.8396 29.1818 44.4545 29.1818ZM44.4322 31.3647C44.366 31.3724 44.3049 31.4066 44.2628 31.4595C44.2312 31.4993 44.2113 31.5477 44.2063 31.598V31.7205C44.2103 31.8007 44.2204 31.8805 44.2362 31.9592C44.2603 32.1094 44.2698 32.2619 44.2649 32.4141C44.251 32.4672 44.222 32.5153 44.1808 32.5504L44.1744 32.6559C44.0227 32.6674 43.8718 32.6918 43.7237 32.7273C43.1057 32.8702 42.5433 33.199 42.1097 33.6722L42.0245 33.6072C41.974 33.6194 41.9208 33.6137 41.8743 33.5902C41.7534 33.499 41.6415 33.3954 41.5398 33.2823C41.489 33.2216 41.4344 33.1637 41.3778 33.1087L41.3267 33.0671C41.2779 33.0274 41.2183 33.0031 41.1563 32.9968C41.1187 32.9955 41.0812 33.0022 41.0465 33.017C41.0116 33.0321 40.9794 33.0545 40.9538 33.0831C40.9153 33.1415 40.9015 33.2139 40.9134 33.2834C40.9253 33.3525 40.9624 33.4145 41.0178 33.456L41.0241 33.4624C41.0353 33.4745 41.0581 33.4918 41.07 33.5039C41.1364 33.5497 41.2062 33.5915 41.2777 33.6286C41.4087 33.7049 41.5319 33.7944 41.6463 33.8949C41.6758 33.9381 41.6917 33.9892 41.6921 34.0419L41.7773 34.1133C41.3377 34.7846 41.1611 35.6007 41.282 36.3995L41.1722 36.4293C41.1452 36.4748 41.1077 36.5131 41.0636 36.5412C40.919 36.5826 40.7694 36.6066 40.6193 36.6126C40.5402 36.609 40.4609 36.6169 40.3839 36.636L40.3168 36.6477H40.3114V36.6509C40.2946 36.6509 40.2775 36.6572 40.2656 36.6573C40.234 36.6676 40.2046 36.6843 40.1793 36.7063C40.1541 36.7283 40.1326 36.7549 40.1175 36.7852C40.1026 36.8153 40.0944 36.8484 40.092 36.8821C40.0896 36.9159 40.0932 36.9501 40.1037 36.9822C40.1262 37.0444 40.1715 37.0954 40.2294 37.125C40.2873 37.1545 40.3539 37.161 40.4158 37.1421C40.4411 37.1382 40.466 37.1317 40.4904 37.1239C40.564 37.1021 40.6354 37.0736 40.7035 37.0376C40.848 36.9828 40.9967 36.9391 41.1477 36.9077C41.1976 36.9077 41.2469 36.9252 41.2862 36.9567L41.4013 36.9386C41.6438 37.7046 42.1498 38.355 42.8256 38.7667L42.7852 38.8722C42.8022 38.9194 42.808 38.9703 42.8022 39.0202C42.7443 39.1654 42.6689 39.3026 42.5774 39.4283C42.5316 39.4995 42.4906 39.5646 42.4389 39.6349C42.4405 39.6469 42.4387 39.6598 42.4347 39.6712C42.4307 39.6824 42.424 39.6929 42.4155 39.701C42.4095 39.7182 42.399 39.7306 42.3931 39.7479C42.3706 39.8113 42.3727 39.8817 42.4006 39.9428C42.4284 40.0038 42.4794 40.0508 42.5412 40.0739C42.6032 40.0969 42.6721 40.0939 42.7319 40.0653C42.7915 40.0368 42.8372 39.9849 42.8597 39.9215C42.8716 39.9041 42.883 39.8629 42.8949 39.8629C42.9223 39.7855 42.9457 39.7056 42.9641 39.6254C43.011 39.4672 43.0743 39.3143 43.1538 39.1705C43.1838 39.1413 43.2224 39.1225 43.2635 39.1172L43.321 39.0117C44.0589 39.3012 44.8753 39.3035 45.6147 39.0181L45.6605 39.1129C45.7097 39.1264 45.7538 39.1565 45.783 39.1992C45.8514 39.3358 45.9077 39.4788 45.9524 39.6254C45.9694 39.7018 45.9928 39.7803 46.0217 39.8672C46.0336 39.868 46.0507 39.9033 46.0558 39.9205C46.0608 39.9377 46.0669 39.9501 46.0728 39.9673C46.0893 39.996 46.1117 40.0209 46.1378 40.0408C46.1639 40.0608 46.1935 40.0754 46.2251 40.0835C46.2568 40.0916 46.2899 40.0928 46.3221 40.0877C46.3542 40.0826 46.3849 40.071 46.4126 40.0536C46.4688 40.019 46.5096 39.9632 46.5256 39.8981C46.5415 39.833 46.5314 39.764 46.4979 39.7063C46.4885 39.6835 46.4803 39.659 46.4744 39.6349C46.4287 39.5698 46.3817 39.4997 46.3359 39.4347C46.2539 39.306 46.1815 39.171 46.1175 39.032C46.1102 39.0065 46.1072 38.9795 46.1101 38.9531C46.113 38.9268 46.1219 38.9016 46.1346 38.8786C46.1176 38.8468 46.1031 38.8132 46.093 38.7784C46.7692 38.3661 47.2767 37.7158 47.5195 36.9492L47.6282 36.9663C47.6444 36.9475 47.6658 36.934 47.6889 36.9258C47.7121 36.9176 47.7372 36.9149 47.7614 36.9194C47.9136 36.9435 48.0626 36.9854 48.2056 37.044C48.2717 37.0801 48.3416 37.1096 48.4134 37.1314C48.4407 37.1395 48.469 37.1432 48.4975 37.1431V37.1495C48.4975 37.1556 48.5221 37.1551 48.5391 37.1612C48.6034 37.1677 48.6678 37.1494 48.7191 37.109C48.7706 37.0684 48.8058 37.0085 48.8161 36.9428C48.8207 36.9096 48.8188 36.8752 48.8107 36.8427C48.8026 36.8103 48.7878 36.78 48.7681 36.7532C48.7483 36.7262 48.7231 36.7031 48.6946 36.6861C48.6662 36.6691 48.6345 36.6575 48.6019 36.6531C48.5772 36.6494 48.5536 36.6398 48.5337 36.6243H48.2972C48.1471 36.6073 47.9986 36.5779 47.853 36.5369C47.8062 36.5146 47.7676 36.477 47.7433 36.4304L47.6335 36.4016C47.7494 35.6029 47.5678 34.7883 47.1243 34.1207L47.217 34.0334C47.2144 34.0079 47.2166 33.9821 47.2244 33.9577C47.2323 33.9333 47.2457 33.9106 47.2628 33.8917C47.3763 33.7898 47.5004 33.7003 47.6325 33.6254C47.7029 33.5897 47.77 33.5477 47.8338 33.5007C47.8522 33.4883 47.8699 33.4745 47.886 33.4592C47.9037 33.4471 47.9209 33.4361 47.9212 33.424C47.9462 33.4022 47.9659 33.3747 47.9798 33.3441C47.9935 33.3137 48.001 33.2807 48.0011 33.2472C48.0011 33.2135 47.9936 33.1797 47.9798 33.1492C47.9659 33.1186 47.9462 33.0911 47.9212 33.0693C47.9 33.0444 47.8737 33.0243 47.8445 33.0107C47.8152 32.997 47.7829 32.9904 47.7507 32.9904C47.7188 32.9905 47.6871 32.9972 47.658 33.0107C47.6288 33.0243 47.6024 33.0445 47.5813 33.0693C47.5644 33.0693 47.5408 33.0932 47.5238 33.1055C47.466 33.1611 47.4137 33.22 47.3619 33.2791C47.2616 33.3935 47.1493 33.4964 47.0273 33.5859C46.9808 33.6094 46.9276 33.6162 46.8771 33.6041L46.7844 33.6744C46.2439 33.0899 45.5124 32.7283 44.7294 32.658L44.7241 32.5462C44.7022 32.5315 44.6833 32.512 44.6687 32.4897C44.6541 32.4675 44.6439 32.4425 44.6389 32.4162C44.6339 32.264 44.6435 32.1116 44.6676 31.9613C44.6852 31.8818 44.6972 31.8008 44.7028 31.7195V31.5895C44.6994 31.5566 44.6894 31.5248 44.674 31.4957C44.6585 31.4666 44.6374 31.441 44.6122 31.4201C44.5871 31.3993 44.558 31.3837 44.527 31.3743C44.4962 31.365 44.4641 31.3613 44.4322 31.3647Z" fill="#14A98B"/>
<path d="M15.9888 28.9587L19.1214 25.8261L19.1175 27.6735L20.2275 26.5635L20.2314 23.9446L17.6118 23.9477L16.5048 25.0547H18.3561L15.2205 28.1904C15.1182 28.2927 15.0607 28.4314 15.0607 28.5761C15.0607 28.7207 15.1182 28.8595 15.2205 28.9618C15.3227 29.0641 15.4615 29.1215 15.6061 29.1215C15.7508 29.1215 15.8895 29.0641 15.9918 28.9618" fill="#14A98B"/>
<path d="M39.0956 28.9587L35.963 25.8261L35.9668 27.6735L34.8568 26.5635L34.853 23.9446L37.4726 23.9477L38.5795 25.0547H36.7282L39.8639 28.1904C39.9662 28.2927 40.0237 28.4314 40.0237 28.5761C40.0237 28.7207 39.9662 28.8595 39.8639 28.9618C39.7616 29.064 39.6229 29.1215 39.4782 29.1215C39.3335 29.1215 39.1948 29.064 39.0925 28.9618" fill="#14A98B"/>
<path d="M25.6953 29.7273V34.1575L24.3916 32.8484V34.4182L26.2407 36.2727L28.0909 34.4182V32.8527L26.7818 34.1618V29.7273C26.7818 29.5826 26.7244 29.4439 26.6221 29.3416C26.5198 29.2393 26.381 29.1818 26.2364 29.1818C26.0917 29.1818 25.953 29.2393 25.8507 29.3416C25.7484 29.4439 25.6909 29.5826 25.6909 29.7273" fill="#14A98B"/>
<path d="M48 60C54.6274 60 60 54.6274 60 48C60 41.3726 54.6274 36 48 36C41.3726 36 36 41.3726 36 48C36 54.6274 41.3726 60 48 60Z" fill="#14A98B"/>
<path d="M48 38C42.48 38 38 42.48 38 48C38 53.52 42.48 58 48 58C53.52 58 58 53.52 58 48C58 42.48 53.52 38 48 38Z" fill="#21B553"/>
<path d="M51.42 47.2299L47.36 43.8499C46.71 43.3099 45.72 43.7699 45.72 44.6199V51.3799C45.72 52.2299 46.71 52.6899 47.36 52.1499L51.42 48.7699C51.9 48.3699 51.9 47.6299 51.42 47.2299Z" fill="white"/>
</svg>
